<svg width="52" height="52" viewBox="0 0 52 52" fill="none" xmlns="http://www.w3.org/2000/svg">
<rect width="52" height="52" fill="white"/>
<path fill-rule="evenodd" clip-rule="evenodd" d="M0 0H52V52H0V0ZM1.81406 1.78286H50.2171V50.2171H1.81406V1.78286Z" fill="#9A2509"/>
<path fill-rule="evenodd" clip-rule="evenodd" d="M27.4274 13.1273L41.7006 21.3047H37.8972L26.5107 13.5314C26.3279 13.5716 26.1363 13.5938 25.9402 13.5938C25.7455 13.5938 25.5539 13.573 25.3711 13.5314L13.9831 21.3047H10.1797L24.453 13.1273H24.4574C23.7874 12.6578 23.3506 11.8823 23.3506 11.0028C23.3506 9.78448 24.1915 8.7623 25.3251 8.48596V7.73716L20.651 3.08984H25.9402H31.2293L26.5567 7.73716V8.48596C26.5567 9.2823 26.5567 8.48596 26.5567 9.2823C24.9314 9.55122 24.8303 11.5094 25.5851 12.0457C26.4334 12.6489 27.8122 12.2374 27.8508 10.196C27.9875 10.196 28.347 10.1975 28.4035 10.1975C28.4867 10.4501 28.5312 10.722 28.5312 11.0028C28.5312 11.8823 28.0944 12.6578 27.4244 13.1273H27.4274Z" fill="#2B2A29"/>
<path fill-rule="evenodd" clip-rule="evenodd" d="M3.50781 32.1967V22.6807H10.8814V32.1967H8.37204L8.37353 25.1499L6.0261 25.1514L6.02758 32.1967H3.50781Z" fill="#9A2509"/>
<path fill-rule="evenodd" clip-rule="evenodd" d="M15.7339 28.9508C18.8539 28.6032 19.5284 23.5428 16.135 22.7465C15.774 22.6633 15.4932 22.6826 15.1262 22.6826L12.0508 22.6811L12.0582 32.1971H14.5602L14.5676 28.9642L15.7339 28.9508ZM14.5245 25.1073V26.7178H14.5408C15.1693 26.7163 15.6982 26.7758 15.7948 25.9512C15.7829 25.0716 15.1663 25.1088 14.5245 25.1073Z" fill="#9A2509"/>
<path fill-rule="evenodd" clip-rule="evenodd" d="M24.0757 22.6807C26.8823 22.6807 29.1569 24.8156 29.1569 27.4394C29.1569 30.0632 26.8823 32.1967 24.0757 32.1967C21.2707 32.1967 18.9961 30.0632 18.9961 27.4394C18.9961 24.8156 21.2707 22.6807 24.0757 22.6807ZM24.0757 24.9018C25.4396 24.9018 26.545 26.0384 26.545 27.4394C26.545 28.8419 25.4396 29.977 24.0757 29.977C22.7133 29.977 21.608 28.8419 21.608 27.4394C21.608 26.0384 22.7133 24.9018 24.0757 24.9018Z" fill="#9A2509"/>
<path fill-rule="evenodd" clip-rule="evenodd" d="M36.1509 23.5691C38.3067 24.0133 39.8979 25.5719 39.8979 27.4275C39.8979 29.2832 38.3067 30.8432 36.1509 31.2859V32.1952H33.6415V31.2859C31.4872 30.8432 29.8945 29.2832 29.8945 27.4275C29.8945 25.5719 31.4872 24.0133 33.6415 23.5691V22.6807H36.1509V23.5691ZM36.1464 26.1023V28.7617C37.6856 28.6933 37.6663 26.0859 36.1464 26.1023ZM33.6504 26.1067V28.7661C32.1469 28.7097 32.1602 26.1023 33.6504 26.1067Z" fill="#9A2509"/>
<path fill-rule="evenodd" clip-rule="evenodd" d="M40.4805 22.6807V32.1967H42.9393L45.9836 27.0828V32.1967H48.4929V22.6807H46.0638L42.9898 27.8361V22.6807H40.4805Z" fill="#9A2509"/>
<path fill-rule="evenodd" clip-rule="evenodd" d="M41.1052 36.8546C42.0025 36.8546 42.7305 37.5826 42.7305 38.48C42.7305 39.0832 42.4022 39.6106 41.9134 39.8914L30.2669 48.0554L30.249 48.0673C29.7276 48.4328 29.0917 48.6467 28.4068 48.6467C27.2226 48.6467 26.1871 48.0064 25.63 47.0526C24.6925 47.6662 24.6108 47.7152 23.7773 48.1832C23.2825 48.461 22.7224 48.6467 22.1133 48.6467C20.996 48.6467 20.0125 48.0777 19.4375 47.213C18.1167 47.9247 18.1776 47.8756 17.3189 48.2679C16.8524 48.4803 16.3502 48.6467 15.802 48.6467C14.028 48.6467 12.5898 47.21 12.5898 45.4346C12.5898 43.6607 14.028 42.224 15.802 42.224C15.9921 42.224 16.1764 42.2403 16.3576 42.2715C15.8852 41.7129 15.6014 40.9908 15.6014 40.2019C15.6014 38.5543 16.842 37.1963 18.4391 37.0121V37.0106L35.9676 34.2635C36.073 34.2472 36.1191 34.2427 36.2276 34.2427C36.4816 34.2427 36.9273 34.314 37.2156 34.574C37.9302 34.4374 38.7444 34.2294 39.459 34.2011C40.2167 34.1699 41.0844 34.9291 41.0844 35.8265C41.0844 36.244 40.9269 36.6258 40.6669 36.914C40.8065 36.8754 40.9536 36.8546 41.1052 36.8546ZM27.4485 41.496C24.7757 42.4558 22.9854 40.6164 23.9645 37.8857C20.6855 40.5793 24.6702 44.7274 27.4485 41.496ZM24.7905 36.9839L36.8709 34.6201C36.602 34.4344 36.3776 34.4522 36.0077 34.4804L19.9144 37.2052C21.2634 37.7089 21.5814 38.3359 21.9692 39.4204L22.2901 39.4145C22.5887 38.1591 23.4222 37.3494 24.7905 36.9839ZM40.3222 34.8058L28.1378 39.2451C27.7085 38.1368 27.1528 37.4771 26.0593 37.1191L38.6983 34.5384C39.2807 34.4195 39.8765 34.323 40.3222 34.8058ZM42.0961 37.5767L31.2445 44.3723C30.8849 43.472 30.2342 42.8836 29.2833 42.6177L39.6462 37.4905C40.395 37.1354 41.6504 36.8308 42.0961 37.5767ZM30.6264 46.9916C27.9536 47.9514 26.1648 46.1136 27.1424 43.3828C23.8634 46.0764 27.8481 50.2231 30.6264 46.9916ZM24.3017 46.9916C21.6289 47.9514 19.8386 46.1136 20.8177 43.3828C17.5388 46.0764 21.5234 50.2231 24.3017 46.9916ZM17.9042 46.9916C15.2314 47.9514 13.4412 46.1136 14.4188 43.3828C11.0922 45.809 15.12 50.1948 17.9042 46.9916ZM21.0926 41.496C18.4198 42.4558 16.6295 40.6164 17.6086 37.8857C14.3296 40.5793 18.3143 44.7274 21.0926 41.496ZM25.2318 43.414H25.2778H25.2318Z" fill="#2B2A29"/>
</svg>
